<mxfile host="app.diagrams.net" agent="Mozilla/5.0 (Windows NT 10.0; Win64; x64) AppleWebKit/537.36 (KHTML, like Gecko) Chrome/128.0.0.0 Safari/537.36 Edg/128.0.0.0" version="24.7.7">
  <diagram name="第 1 页" id="iWVoZDMzAQuaJpYY_TNt">
    <mxGraphModel dx="1853" dy="1029" grid="1" gridSize="10" guides="1" tooltips="1" connect="1" arrows="1" fold="1" page="0" pageScale="1" pageWidth="827" pageHeight="1169" math="0" shadow="0">
      <root>
        <mxCell id="0" />
        <mxCell id="1" parent="0" />
        <mxCell id="mPcpz4siuyIrg-kaVJwC-1" value="协同过滤&lt;div&gt;1）基于用户的&lt;/div&gt;&lt;div&gt;2）基于物品的&lt;/div&gt;&lt;div&gt;实现方法&lt;/div&gt;&lt;div&gt;利用用户item的共现矩阵学习用户和item的表示&lt;/div&gt;&lt;div&gt;内积可以表示成相似度&lt;/div&gt;&lt;div&gt;&lt;br&gt;&lt;/div&gt;&lt;div&gt;&lt;br&gt;&lt;/div&gt;&lt;div&gt;持久化操作&lt;/div&gt;&lt;div&gt;cache()函数与persist()函数&lt;/div&gt;&lt;div&gt;&lt;br&gt;&lt;/div&gt;&lt;div&gt;&lt;br&gt;&lt;/div&gt;&lt;div&gt;正则化调整输入数据的分布，使网络收敛更稳定&lt;/div&gt;&lt;div&gt;BN指对特征进行归一化&lt;/div&gt;&lt;div&gt;LN指对样本进行归一化&lt;/div&gt;&lt;div&gt;图像中多用BN，NLP中多用LN&lt;/div&gt;&lt;div&gt;&lt;br&gt;&lt;/div&gt;&lt;div&gt;AUC指标&lt;/div&gt;&lt;div&gt;&lt;br&gt;&lt;/div&gt;&lt;div&gt;特征的筛选&lt;/div&gt;&lt;div&gt;&lt;br&gt;&lt;/div&gt;&lt;div&gt;Node2vec&lt;/div&gt;&lt;div&gt;&lt;br&gt;&lt;/div&gt;&lt;div&gt;Cross&lt;/div&gt;&lt;div&gt;&lt;br&gt;&lt;/div&gt;&lt;div&gt;优化器&lt;/div&gt;&lt;div&gt;&lt;br&gt;&lt;/div&gt;&lt;div&gt;为什么交叉熵损失函数？&lt;/div&gt;" style="rounded=0;whiteSpace=wrap;html=1;align=left;verticalAlign=top;spacingLeft=4;" parent="1" vertex="1">
          <mxGeometry x="-30" y="-20" width="510" height="420" as="geometry" />
        </mxCell>
        <mxCell id="rIpiguzm-pUeTe3Zb9X0-1" value="&lt;div&gt;1.专业贴合&lt;/div&gt;&lt;div&gt;申请人本科专业为自动化，研究生阶段专业为控制科学与工程，研究方向为机器学习方法在锂离子电池上的应用。因此在AI算法上有一定的基础，了解传统的机器学习分类回归算法，对计算机视觉与自然语言处理也有实践经历。因此与岗位要求较为匹配。&lt;/div&gt;&lt;div&gt;2.意向一致&lt;/div&gt;&lt;div&gt;除了岗位意向的一致以外，申请人为江西上饶人，因此希望毕业后留在离家近的杭州发展。&lt;/div&gt;&lt;div&gt;3.发展前景&lt;/div&gt;&lt;div&gt;海康的前景很好，萤石作为上市公司也具有潜力，因希望可以在这继续与公司一起进步发展。&lt;/div&gt;&lt;div&gt;&lt;br&gt;&lt;/div&gt;" style="rounded=0;whiteSpace=wrap;html=1;align=left;" parent="1" vertex="1">
          <mxGeometry x="-30" y="420" width="510" height="140" as="geometry" />
        </mxCell>
        <mxCell id="rIpiguzm-pUeTe3Zb9X0-2" value="&lt;div&gt;&lt;div&gt;当然，我可以帮你润色和扩写你的实习感受。下面是润色后的版本：&lt;/div&gt;&lt;div&gt;&lt;br&gt;&lt;/div&gt;&lt;div&gt;---&lt;/div&gt;&lt;div&gt;&lt;br&gt;&lt;/div&gt;&lt;div&gt;### 实习感受&lt;/div&gt;&lt;div&gt;&lt;br&gt;&lt;/div&gt;&lt;div&gt;**1. 工作环境**&lt;/div&gt;&lt;div&gt;&lt;br&gt;&lt;/div&gt;&lt;div&gt;在海康的四期和五期办公区工作了一段时间，我对公司的工作环境印象深刻。办公区宽敞明亮，各个工位也保持着干净整洁，这样的环境让实习过程变得非常愉快。公司注重员工的工作氛围，为我们提供了一个舒适和高效的工作空间，这无疑提升了我的工作积极性和满意度。&lt;/div&gt;&lt;div&gt;&lt;br&gt;&lt;/div&gt;&lt;div&gt;**2. 工作内容**&lt;/div&gt;&lt;div&gt;&lt;br&gt;&lt;/div&gt;&lt;div&gt;我的主要工作内容是负责清洁机器人的视觉算法，尤其是脏物检测算法。作为计算机视觉领域内一个热门且具有挑战性的方向，这段实习经历让我在理论和实践方面都获得了宝贵的知识。在实习过程中，我不仅深入了解了相关技术，还参与了实际的项目开发，这对于我的职业成长和技能提升都具有重要意义。&lt;/div&gt;&lt;div&gt;&lt;br&gt;&lt;/div&gt;&lt;div&gt;**3. 导师与主管**&lt;/div&gt;&lt;div&gt;&lt;br&gt;&lt;/div&gt;&lt;div&gt;我的导师李工在整个实习期间给予了我极大的支持和帮助。无论遇到什么问题，他总是耐心地解答，并在实习初期详细指导我了解项目的相关细节。李工的细心和耐心让我受益匪浅，非常感谢他的帮助。此外，主管虽然负责整个部门的管理工作，事务繁忙，但他对实习生却非常宽容，允许我们在工作中自由探索和实践自己感兴趣的方向，这种开放的工作氛围使我能够发挥自己的创造力并实现个人的兴趣和想法。&lt;/div&gt;&lt;div&gt;&lt;br&gt;&lt;/div&gt;&lt;div&gt;**4. 生活方面**&lt;/div&gt;&lt;div&gt;&lt;br&gt;&lt;/div&gt;&lt;div&gt;在实习期间，我加入了海康的足球俱乐部。俱乐部每周组织活动，在球场上不仅锻炼了身体，还感受到了前辈们的热情和包容，这让我在工作之余也能放松心情，增进了与同事的关系。住宿方面，公司提供了免费的住宿，这让我在生活上省去了很多烦恼。公司食堂的伙食也非常不错，菜品丰富，价格合理，为实习生活提供了很好的保障。&lt;/div&gt;&lt;div&gt;&lt;br&gt;&lt;/div&gt;&lt;div&gt;总的来说，这次实习经历让我在专业技能和个人成长方面都得到了很大的提升，也让我体验到了一个优质的工作和生活环境。我非常感激这段经历带给我的一切，也期待未来能够将这些宝贵的经验运用到今后的工作中。&lt;/div&gt;&lt;div&gt;&lt;br&gt;&lt;/div&gt;&lt;div&gt;---&lt;/div&gt;&lt;/div&gt;&lt;div&gt;&lt;br&gt;&lt;/div&gt;" style="rounded=0;whiteSpace=wrap;html=1;align=left;" parent="1" vertex="1">
          <mxGeometry x="-30" y="570" width="510" height="750" as="geometry" />
        </mxCell>
      </root>
    </mxGraphModel>
  </diagram>
</mxfile>
